<svg width="249" height="54" viewBox="0 0 249 54" fill="none" xmlns="http://www.w3.org/2000/svg">
<path d="M15.954 48.8315C6.69001 47.9675 0.738014 38.7515 0.882014 29.2955C1.07401 18.2075 9.13801 5.58347 21.666 5.58347C29.106 5.58347 31.794 10.1435 31.794 15.4715C31.794 21.0875 28.818 27.5675 25.362 30.3515C25.074 30.5915 23.154 31.6955 22.77 31.5035C22.482 31.3595 22.674 31.0235 22.914 30.8315C26.226 28.1435 29.922 20.7035 29.922 14.7995C29.922 10.4795 27.954 7.02347 22.338 6.83147C10.866 6.44747 3.23401 18.0155 2.94601 29.1515C2.75401 36.6875 6.83401 46.3835 15.81 47.6315C16.386 47.7275 17.01 47.7755 17.586 47.7755C26.082 47.7755 35.394 39.7595 36.786 31.3115C36.786 30.5915 37.89 31.6955 37.506 33.7115C35.97 41.8235 28.098 48.9275 18.018 48.9275C17.346 48.9275 16.674 48.8795 15.954 48.8315ZM46.0845 40.4795C44.5485 40.4795 43.2045 39.6155 42.2445 38.2715C41.3325 36.8315 40.9965 33.4235 40.9965 29.4395C40.9965 21.4715 42.3405 11.1515 42.9645 9.13547C43.0125 8.84747 43.3005 8.79947 43.7805 8.99147C44.2605 9.23147 44.6445 9.61547 44.6445 9.85547C44.3565 10.7675 42.9645 22.2875 42.9645 30.5915C42.9645 34.8635 43.3485 38.2715 44.4045 38.9915C46.9005 40.5275 52.7085 32.7035 53.4285 31.7915C53.9085 31.1195 54.0045 32.3195 53.8125 32.8955C52.9485 35.2955 49.1085 40.4795 46.0845 40.4795ZM60.6116 38.0795C57.7796 38.2235 54.1316 37.6955 53.1716 34.7195C53.0276 34.2875 52.9316 33.8075 52.9316 33.3275C52.9316 31.2155 54.3716 29.0555 56.7236 28.9595C58.2116 28.9595 59.6036 30.3995 59.0756 31.7915C58.4516 33.3275 56.3876 34.4795 54.7076 34.4795C54.8516 35.3915 56.5316 36.9275 58.2116 36.9275C62.7236 36.9275 66.0836 33.5675 68.0996 31.4555C69.2036 30.3035 69.0116 31.4075 68.3396 32.7515C66.9956 35.5355 63.9236 37.8875 60.6116 38.0795ZM57.4916 30.5915C56.4836 29.5835 54.6116 32.1275 54.6596 33.3275C56.6756 32.4155 58.0196 31.1195 57.4916 30.5915ZM67.914 36.6395C66.954 35.9195 66.474 35.0075 66.474 33.9995C66.474 32.9435 67.002 31.8875 68.202 31.0715C69.498 30.2075 71.13 29.7755 72.81 29.7755C74.154 29.7755 75.498 30.0635 76.698 30.5915H76.746L77.562 29.4875C77.85 28.9595 79.482 30.0155 79.146 30.5915C78.906 31.3115 78.474 32.1755 78.378 33.0875C78.33 33.9035 78.57 34.8635 79.434 35.1035C81.882 35.5835 86.01 33.1355 87.738 31.2155C88.554 30.3995 89.274 31.5995 86.634 34.2395C85.434 35.4395 82.122 36.9755 80.106 36.4955C78.522 36.1115 77.322 35.1995 76.698 33.4715C75.354 34.6715 72.186 37.1195 69.642 37.1195C69.018 37.1195 68.442 36.9755 67.914 36.6395ZM68.778 35.5835C71.082 35.2955 74.202 33.3275 75.882 31.5515C75.402 31.4075 74.73 31.3115 74.01 31.3115C71.61 31.3115 68.442 32.2235 67.914 34.4315C67.77 35.0075 68.058 35.5355 68.778 35.5835ZM96.5888 30.9755C93.0368 31.3595 89.5808 33.6635 88.6688 35.6795L88.6208 36.7835C88.6688 37.4075 86.9888 36.9755 86.9408 36.2075C86.8928 35.8235 86.8448 35.3435 86.9408 34.7675L87.4208 29.9675C87.4208 29.6315 87.9008 29.5835 88.3808 29.7755C88.7648 30.0155 89.1968 30.4475 89.1488 30.7355L89.0528 32.3675C90.6848 31.1675 94.1408 29.4395 96.8288 29.7275C97.7408 29.8235 98.6048 30.6875 98.6048 31.4075C98.6048 31.8875 98.4608 32.6075 98.4128 33.3755C98.4128 33.9515 98.8448 34.3835 99.5168 34.5755C100.525 34.8635 102.109 34.9595 104.077 34.9595C109.741 34.9595 117.997 33.9995 120.157 33.3755C120.493 33.2795 122.269 32.8475 122.509 33.2315C122.893 33.6155 120.877 34.3835 120.541 34.4795C117.133 35.5835 110.125 36.7355 104.797 36.7355C103.117 36.7355 101.629 36.5915 100.429 36.3515C99.6128 36.1115 96.2048 35.3915 96.5888 30.9755ZM155.1 38.4155C155.052 36.8315 155.052 35.2475 155.052 33.6635C155.052 25.4075 155.628 16.9595 156.3 8.31947C148.908 8.99147 141.948 13.2635 138.828 18.7355C137.868 20.4635 137.388 22.4315 137.388 24.3515C137.388 29.4395 140.7 34.3835 147.18 34.2875C147.9 34.2875 148.716 34.1915 149.388 33.9995C149.772 33.8555 150.252 34.1435 149.772 34.4795C149.532 34.6235 148.092 35.0555 146.22 35.0555C143.388 35.0555 139.5 34.0955 137.052 29.9675C136.188 28.5275 135.708 26.5115 135.708 24.3515C135.708 22.1435 136.188 19.7435 137.388 17.6315C140.508 12.1115 147.708 7.69547 155.388 6.87947L156.444 6.78347C156.684 4.28747 156.924 2.17547 157.212 0.879473C157.26 0.687472 157.164 0.543474 157.932 0.687472C158.412 0.735472 158.892 1.11947 158.892 1.35947C158.652 2.70347 158.412 4.52747 158.22 6.68747C160.668 6.59147 163.26 6.78347 165.708 7.31147C172.908 8.75147 176.172 12.9275 176.268 16.8635C176.364 20.6075 173.436 24.4475 168.828 26.0315C171.852 27.3275 174.588 29.5355 176.028 32.9915C177.9 32.7515 180.204 32.6075 181.98 32.6075C183.564 32.6075 184.764 32.7035 185.052 33.0395C185.388 33.3755 185.052 33.5675 184.764 33.6155C181.788 33.8555 179.052 34.0955 176.604 34.4795L176.508 34.5275C176.604 35.1035 176.652 35.6795 176.652 36.2555C176.652 42.3995 171.612 47.1995 165.612 49.2635C163.212 50.1275 160.38 50.5595 157.692 50.5115C155.196 50.4155 148.188 49.2635 148.188 45.5675C148.188 45.1355 148.284 44.7035 148.476 44.1755C149.58 41.7275 152.22 39.8075 155.1 38.4155ZM174.588 33.1835C173.34 29.9195 170.172 27.6155 167.004 26.6555C165.948 26.8955 164.892 26.9435 163.644 26.9915C161.772 27.0875 159.516 26.8955 159.18 26.1755C159.036 25.4075 159.324 25.3595 159.66 25.2155C160.428 24.7835 161.628 24.4955 163.068 24.4955C164.172 24.4955 165.468 24.6875 166.86 25.1195C170.172 24.5915 174.492 20.8955 174.54 17.1035C174.588 13.7435 171.564 9.66347 164.94 8.46347C163.308 8.22347 161.628 8.07947 159.9 8.07947C159.276 8.07947 158.7 8.07947 158.076 8.12747C157.5 16.9115 156.78 28.1915 156.636 37.6955C157.932 37.1195 159.228 36.6875 160.428 36.2555C165.18 34.5755 170.7 33.7595 174.588 33.1835ZM161.484 37.6955C160.044 38.2235 158.316 38.7995 156.684 39.5675C156.78 41.4875 156.972 43.1195 157.404 44.1755C157.452 44.4155 157.356 44.5595 157.068 44.5595C156.54 44.5115 156.108 43.8875 155.964 43.5035C155.628 42.7835 155.388 41.6315 155.244 40.2875C152.94 41.4875 150.78 43.1195 149.628 45.2315C148.476 48.5435 154.524 48.9755 156.876 49.0235C159.324 49.1195 162.108 48.7355 164.652 47.9195C169.74 46.1915 175.644 42.1115 175.02 34.7195C169.548 35.5835 165.324 36.3035 161.484 37.6955ZM190.971 38.0795C188.139 38.2235 184.491 37.6955 183.531 34.7195C183.387 34.2875 183.291 33.8075 183.291 33.3275C183.291 31.2155 184.731 29.0555 187.083 28.9595C188.571 28.9595 189.963 30.3995 189.435 31.7915C188.811 33.3275 186.747 34.4795 185.067 34.4795C185.211 35.3915 186.891 36.9275 188.571 36.9275C193.083 36.9275 196.443 33.5675 198.459 31.4555C199.563 30.3035 199.371 31.4075 198.699 32.7515C197.355 35.5355 194.283 37.8875 190.971 38.0795ZM187.851 30.5915C186.843 29.5835 184.971 32.1275 185.019 33.3275C187.035 32.4155 188.379 31.1195 187.851 30.5915ZM221.793 17.6315C223.761 17.5355 226.497 17.4875 229.473 17.4875C236.193 17.4875 244.065 17.7275 247.329 18.4475C247.761 18.6395 248.241 19.1195 248.433 19.4075C248.481 19.7915 248.241 19.9835 247.857 19.9355C243.969 19.1675 236.433 18.9755 230.049 18.9755C226.545 18.9755 223.377 19.0235 221.361 19.1195C220.977 19.1675 220.641 19.1675 220.305 19.1675C220.257 19.5995 220.209 19.9835 220.209 20.3675C219.825 26.0315 219.537 34.6715 219.537 42.0635C219.537 45.9995 219.633 49.5515 219.777 52.1915C219.825 53.3435 218.433 51.8555 218.193 50.8475C217.953 47.5355 217.809 41.0075 217.809 35.3435C217.809 32.5115 217.809 29.9195 217.905 28.0475C216.081 33.3755 213.057 36.8795 210.465 36.4955C208.689 36.2555 207.489 34.4795 207.249 33.3275L206.433 34.0955L205.665 34.6715C204.753 35.4395 203.649 36.1115 202.689 36.5435C202.113 36.7355 201.489 36.9275 200.865 36.9275C200.385 36.9275 199.905 36.8315 199.425 36.5435L199.185 36.3995C198.513 35.9675 198.081 35.5355 197.745 35.0555C197.409 34.5275 197.169 33.9515 197.217 33.4715C197.169 32.6075 197.697 31.7915 198.465 31.1675C199.473 30.3995 200.961 29.8715 202.929 29.8715C203.985 29.8715 205.185 30.0155 206.529 30.3995L207.057 30.5915H207.105L207.777 29.7755V29.6795C207.873 29.5835 207.873 29.5355 207.921 29.5355V29.4875C208.209 28.9595 209.841 30.0155 209.505 30.5915V30.7355L209.409 30.8315L209.457 30.8795C209.265 31.3115 208.785 32.1275 208.737 33.0875C208.785 34.1435 209.073 34.9595 209.793 35.1035C212.145 35.4875 216.465 29.4875 218.145 19.4555V19.2635C214.305 19.4555 210.657 19.6475 206.913 20.1275C206.001 20.2715 205.041 18.9755 205.857 18.8315C209.169 18.3035 212.625 18.0155 218.385 17.7755C218.865 14.3675 219.009 11.4395 219.537 8.79947C219.537 8.03147 221.457 8.55947 221.313 9.56747C220.977 10.6235 220.689 14.2715 220.401 17.6795C220.833 17.6795 221.313 17.6795 221.793 17.6315ZM200.049 35.4875C200.385 35.4395 200.769 35.3435 201.297 35.1515C202.209 34.7675 203.217 34.1435 204.177 33.3755C204.849 32.8475 205.569 32.2235 206.097 31.6475L206.241 31.5515L205.713 31.4555C205.185 31.3595 204.561 31.3115 203.985 31.3115C202.257 31.3115 200.913 31.7915 200.001 32.4635C199.233 33.0395 198.897 33.7115 198.897 34.3355C198.897 34.6235 198.993 35.0075 199.329 35.2955L199.521 35.3915C199.521 35.4395 199.665 35.4875 200.049 35.4875ZM224.195 37.5995C223.619 37.3115 223.187 36.1115 224.243 36.3515C224.675 36.4475 225.203 36.4955 225.827 36.4955C227.363 36.4955 229.283 36.2555 230.531 35.9675C229.331 35.3435 227.507 34.4315 226.547 33.9035C225.299 33.1835 223.955 32.7035 223.763 31.2635C223.379 28.7195 228.611 27.1835 231.059 26.8475C231.827 26.7515 232.787 27.6635 232.403 28.1435C230.627 28.7675 226.259 29.5835 225.731 30.8315C225.443 31.5035 226.547 31.9835 227.507 32.5595C229.331 33.5675 230.771 34.2875 231.731 35.0555C232.787 35.9675 231.875 37.3115 230.627 37.6475C229.763 37.8875 228.515 38.0315 227.267 38.0315C226.067 38.0315 224.915 37.8875 224.195 37.5995Z" fill="black"/>
</svg>
